HIERARCHY
ROOT SimulationBone
{
	OFFSET 0.000000 0.000000 0.000000
	CHANNELS 6 Xposition Yposition Zposition Zrotation Yrotation Xrotation 
	JOINT Hips
	{
		OFFSET 0.000000 0.000000 0.000000
		CHANNELS 6 Xposition Yposition Zposition Zrotation Yrotation Xrotation 
		JOINT LeftUpLeg
		{
			OFFSET 0.103458 1.857831 10.548505
			CHANNELS 3 Zrotation Yrotation Xrotation
			JOINT LeftLeg
			{
				OFFSET 43.500000 -0.000031 0.000002
				CHANNELS 3 Zrotation Yrotation Xrotation
				JOINT LeftFoot
				{
					OFFSET 42.372200 0.000023 0.000003
					CHANNELS 3 Zrotation Yrotation Xrotation
					JOINT LeftToe
					{
						OFFSET 17.299997 -0.000001 -0.000010
						CHANNELS 3 Zrotation Yrotation Xrotation
						End Site
						{
							OFFSET 0.000000 0.000000 0.000000
						}
					}
				}
			}
		}
		JOINT RightUpLeg
		{
			OFFSET 0.103457 1.857828 -10.548510
			CHANNELS 3 Zrotation Yrotation Xrotation
			JOINT RightLeg
			{
				OFFSET 43.500046 -0.000015 0.000002
				CHANNELS 3 Zrotation Yrotation Xrotation
				JOINT RightFoot
				{
					OFFSET 42.372261 -0.000008 0.000023
					CHANNELS 3 Zrotation Yrotation Xrotation
					JOINT RightToe
					{
						OFFSET 17.299990 -0.000007 -0.000002
						CHANNELS 3 Zrotation Yrotation Xrotation
						End Site
						{
							OFFSET 0.000000 0.000000 0.000000
						}
					}
				}
			}
		}
		JOINT Spine
		{
			OFFSET 6.901967 -2.603726 -0.000001
			CHANNELS 3 Zrotation Yrotation Xrotation
			JOINT Spine1
			{
				OFFSET 12.588100 -0.000009 -0.000003
				CHANNELS 3 Zrotation Yrotation Xrotation
				JOINT Spine2
				{
					OFFSET 12.343202 0.000008 0.000008
					CHANNELS 3 Zrotation Yrotation Xrotation
					JOINT Neck
					{
						OFFSET 25.832897 -0.000015 -0.000004
						CHANNELS 3 Zrotation Yrotation Xrotation
						JOINT Head
						{
							OFFSET 11.766609 0.000013 -0.000006
							CHANNELS 3 Zrotation Yrotation Xrotation
							End Site
							{
								OFFSET 0.000000 0.000000 0.000000
							}
						}
					}
					JOINT LeftShoulder
					{
						OFFSET 19.745911 -1.480373 6.000098
						CHANNELS 3 Zrotation Yrotation Xrotation
						JOINT LeftArm
						{
							OFFSET 11.284123 -0.000007 -0.000032
							CHANNELS 3 Zrotation Yrotation Xrotation
							JOINT LeftForeArm
							{
								OFFSET 33.000050 0.000005 0.000031
								CHANNELS 3 Zrotation Yrotation Xrotation
								JOINT LeftHand
								{
									OFFSET 25.200008 0.000017 0.000013
									CHANNELS 3 Zrotation Yrotation Xrotation
									End Site
									{
										OFFSET 0.000000 0.000000 0.000000
									}
								}
							}
						}
					}
					JOINT RightShoulder
					{
						OFFSET 19.746092 -1.480379 -6.000077
						CHANNELS 3 Zrotation Yrotation Xrotation
						JOINT RightArm
						{
							OFFSET 11.284136 -0.000017 -0.000017
							CHANNELS 3 Zrotation Yrotation Xrotation
							JOINT RightForeArm
							{
								OFFSET 33.000099 0.000019 0.000015
								CHANNELS 3 Zrotation Yrotation Xrotation
								JOINT RightHand
								{
									OFFSET 25.199780 0.000140 0.000408
									CHANNELS 3 Zrotation Yrotation Xrotation
									End Site
									{
										OFFSET 0.000000 0.000000 0.000000
									}
								}
							}
						}
					}
				}
			}
		}
	}
}
MOTION
Frames: 5
Frame Time: 0.016667
88.211026 0.000000 -63.767674 0.000000 166.414563 0.000000 -0.689489 87.981453 -0.677945 93.834919 -3.857106 178.791308 161.608751 0.323395 178.209730 -37.986847 -2.575526 -2.724660 80.887853 1.574421 -1.708449 21.454551 0.003090 0.000000 167.856489 3.860899 -176.400769 -77.065358 -2.756379 3.730276 70.657794 -1.716241 2.555213 21.454562 -0.003108 -0.000018 8.647788 -1.783111 1.002376 7.256367 -3.625416 1.892096 6.937769 -3.613789 1.913977 10.149999 -11.900790 -13.001527 -14.814320 14.690091 -19.571547 -167.259652 -71.755403 -14.525822 -11.813045 49.312196 27.620890 -24.270790 -12.727182 0.985744 10.710092 0.033473 30.382630 -174.965514 71.843014 6.558290 -17.348838 -60.214454 -22.281927 -25.941368 17.059956 -1.313789 10.957467 0.292238 -5.794871 
86.771750 0.000000 -63.974704 0.000000 166.121168 0.000000 -0.657825 88.408762 -0.694731 93.838792 -3.785509 178.929139 163.400420 0.424492 178.493923 -36.555380 -2.696899 -2.962935 81.221600 1.741385 -1.734979 21.454552 0.003090 -0.000000 165.697823 3.894114 -175.433904 -77.708627 -2.688899 4.750823 71.244632 -2.473288 2.543686 21.454553 -0.003111 -0.000017 8.565470 -1.745956 0.886403 7.095695 -3.542838 1.665081 6.777094 -3.532584 1.686467 10.213501 -11.536082 -12.859821 -14.668606 14.612645 -19.339635 -168.282039 -71.942170 -13.473600 -15.094216 48.799092 26.213413 -24.463346 -12.884099 0.998586 10.579731 -0.404139 30.662056 -174.058457 71.665663 7.489812 -14.854063 -59.874481 -24.745406 -26.266895 16.963525 -1.313236 10.684270 -0.436644 -7.649812 
85.326447 0.000000 -64.198622 0.000000 165.853048 0.000000 -0.647763 88.879463 -0.674529 93.632359 -3.616638 179.118134 165.095453 0.423095 178.689620 -34.851405 -2.706542 -3.116039 81.383411 1.845499 -1.764760 21.454553 0.003091 0.000000 163.440990 3.859496 -174.596588 -77.656299 -2.446104 5.414068 71.022294 -2.894623 2.745832 21.454545 -0.003113 -0.000015 8.429925 -1.681762 0.757008 6.828973 -3.405138 1.414316 6.510380 -3.396399 1.434875 9.939475 -11.148571 -12.734650 -14.244327 14.391951 -19.056402 -169.082548 -72.251192 -12.650109 -18.203128 48.355959 24.924034 -24.843053 -13.126960 1.020050 10.326214 -0.897995 31.208274 -173.050192 71.581267 8.526624 -12.087884 -59.530130 -27.473281 -26.961476 16.875362 -1.319481 9.976203 -0.806949 -9.577558 
83.875054 0.000000 -64.441350 0.000000 165.607077 0.000000 -0.661608 89.332490 -0.634670 93.298800 -3.455844 179.308030 166.714785 0.394239 178.893358 -32.996609 -2.731846 -3.263820 81.439794 1.943806 -1.796414 21.454553 0.003092 0.000000 161.053855 3.873410 -173.862873 -77.184924 -2.181355 5.444835 70.557668 -2.887697 2.849174 21.454551 -0.003110 -0.000016 8.264582 -1.613300 0.613673 6.502764 -3.258427 1.136454 6.184164 -3.251367 1.156134 9.375033 -10.781326 -12.641753 -13.602639 14.063726 -18.760190 -169.897494 -72.684570 -11.812716 -21.015446 47.932940 23.822370 -25.569181 -13.335895 1.045067 10.121153 -1.747899 32.032673 -171.867845 71.488260 9.742936 -9.298912 -59.047239 -30.730920 -27.820413 16.942054 -1.338480 9.200832 -0.959717 -10.946481 
82.417133 0.000000 -64.704438 0.000000 165.383174 0.000000 -0.695642 89.728394 -0.590532 92.910656 -3.344131 179.496428 168.276013 0.375504 179.060472 -31.110814 -2.774407 -3.383813 81.455776 2.024439 -1.813364 21.454553 0.003092 -0.000000 158.686427 3.964598 -173.213420 -76.232936 -1.933126 5.019740 70.239971 -2.640341 2.688817 21.454560 -0.003106 -0.000017 8.089854 -1.545269 0.453693 6.157908 -3.112412 0.825128 5.839311 -3.107234 0.843932 8.620206 -10.585771 -12.541951 -12.965765 13.935083 -18.553581 -170.795518 -73.193095 -10.891396 -23.532603 47.476057 22.920488 -26.596064 -13.558564 1.075873 9.849761 -2.690798 32.855070 -170.529906 71.486444 11.120047 -6.592301 -58.518217 -34.177156 -28.800277 17.110969 -1.367817 8.463672 -1.079291 -11.690567 
